<svg width="132" height="132" viewBox="0 0 132 132" fill="none" xmlns="http://www.w3.org/2000/svg">
<path d="M16.5 104.5H115.5C116.502 104.497 117.485 104.22 118.342 103.7C119.199 103.18 119.897 102.437 120.363 101.549C120.829 100.661 121.043 99.6635 120.984 98.6629C120.925 97.6624 120.594 96.6969 120.026 95.8705L70.5265 24.3705C68.475 21.406 63.536 21.406 61.479 24.3705L11.979 95.8705C11.406 96.6952 11.07 97.6611 11.0075 98.6634C10.945 99.6656 11.1583 100.666 11.6243 101.555C12.0903 102.445 12.7912 103.19 13.6508 103.709C14.5104 104.228 15.4958 104.502 16.5 104.5ZM66 37.1635L105.006 93.5H26.994L66 37.1635Z" fill="black"/>
</svg>
