<?xml version="1.0" encoding="UTF-8"?>
<svg id="Layer_1" data-name="Layer 1" xmlns="http://www.w3.org/2000/svg" viewBox="0 0 27 100">
  <path d="m26.24,33.96l-24.73,3.16-.89,4.18,4.86.91c3.18.77,3.8,1.94,3.11,5.16L.63,85.5c-2.1,9.86,1.13,14.5,8.73,14.5,5.89,0,12.72-2.77,15.82-6.58l.95-4.57c-2.16,1.94-5.31,2.71-7.41,2.71-2.97,0-4.05-2.12-3.28-5.86l10.81-51.74Zm.76-22.96c0,2.92-1.14,5.71-3.16,7.78-2.03,2.06-4.77,3.22-7.64,3.22s-5.61-1.16-7.64-3.22c-2.03-2.06-3.16-4.86-3.16-7.78s1.14-5.71,3.16-7.78c2.03-2.06,4.77-3.22,7.64-3.22s5.61,1.16,7.64,3.22c2.03,2.06,3.16,4.86,3.16,7.78Z"/>
</svg>