<svg width="27" height="100" viewBox="0 0 27 100" fill="none" xmlns="http://www.w3.org/2000/svg">
<path d="M26.244 33.9565L1.51151 37.1124L0.625896 41.291L5.48599 42.2037C8.66125 42.9734 9.28766 44.139 8.59645 47.3609L0.625896 85.4959C-1.46934 95.3596 1.75992 100 9.35246 100C15.2386 100 22.0751 97.229 25.1748 93.4242L26.1252 88.8498C23.9651 90.7851 20.8115 91.5549 18.7162 91.5549C15.7462 91.5549 14.6662 89.4326 15.433 85.6939L26.244 33.9565ZM27 10.9963C27 13.9127 25.8621 16.7096 23.8367 18.7718C21.8113 20.834 19.0642 21.9925 16.1998 21.9925C13.3354 21.9925 10.5883 20.834 8.5629 18.7718C6.53746 16.7096 5.39959 13.9127 5.39959 10.9963C5.39959 8.07987 6.53746 5.28293 8.5629 3.22073C10.5883 1.15853 13.3354 0 16.1998 0C19.0642 0 21.8113 1.15853 23.8367 3.22073C25.8621 5.28293 27 8.07987 27 10.9963Z" fill="white"/>
</svg>
