<svg width="69" height="333" viewBox="0 0 69 333" fill="none" xmlns="http://www.w3.org/2000/svg">
<path d="M0.38401 292.864C0.38401 292.224 0.704012 291.904 1.34402 291.904L14.688 291.904C15.328 291.904 15.648 292.224 15.648 292.864L15.648 304L53.664 304L53.664 292.864C53.664 292.224 53.984 291.904 54.624 291.904L67.968 291.904C68.608 291.904 68.928 292.224 68.928 292.864L68.928 332.032C68.928 332.672 68.608 332.992 67.968 332.992L54.624 332.992C53.984 332.992 53.664 332.672 53.664 332.032L53.664 320.8L15.648 320.8L15.648 332.032C15.648 332.672 15.328 332.992 14.688 332.992L1.34402 332.992C0.704014 332.992 0.384012 332.672 0.384012 332.032L0.38401 292.864ZM1.34402 332.032L14.688 332.032L14.688 319.84L54.624 319.84L54.624 332.032L67.968 332.032L67.968 292.864L54.624 292.864L54.624 304.96L14.688 304.96L14.688 292.864L1.34402 292.864L1.34402 332.032ZM1.24801 214.021C0.608008 214.021 0.288008 213.701 0.288008 213.061L0.288007 198.181C0.288007 197.541 0.608007 197.221 1.24801 197.221L67.968 197.221C68.608 197.221 68.928 197.541 68.928 198.181L68.928 213.061C68.928 213.701 68.608 214.021 67.968 214.021L53.184 214.021L18.816 256.453C17.92 257.541 17.248 258.629 16.8 259.717C16.352 260.741 16.032 261.797 15.84 262.885C15.712 263.397 15.648 263.941 15.648 264.517C15.584 265.093 15.52 265.701 15.456 266.341L15.456 269.317L67.968 269.317C68.608 269.317 68.928 269.637 68.928 270.277L68.928 285.157C68.928 285.797 68.608 286.117 67.968 286.117L1.24801 286.117C0.608011 286.117 0.288011 285.797 0.288011 285.157L0.28801 261.061C0.28801 257.093 1.53601 253.573 4.03201 250.501L33.6 214.021L1.24801 214.021ZM35.616 213.061L4.80001 251.077C2.43201 254.021 1.24801 257.349 1.24801 261.061L1.24801 285.157L67.968 285.157L67.968 270.277L14.496 270.277L14.496 265.861C14.496 262.149 15.68 258.821 18.048 255.877L52.704 213.061L67.968 213.061L67.968 198.181L1.24801 198.181L1.24801 213.061L35.616 213.061ZM0.288004 110.406C0.288004 109.766 0.608003 109.446 1.248 109.446L14.496 109.446C15.136 109.446 15.456 109.766 15.456 110.406L15.456 170.31C15.456 171.398 15.904 172.294 16.8 172.998C17.632 173.638 18.688 173.958 19.968 173.958C21.248 173.958 22.304 173.638 23.136 172.998C23.904 172.358 24.288 171.462 24.288 170.31L24.288 119.91C24.288 119.27 24.608 118.95 25.248 118.95L38.496 118.95C39.136 118.95 39.456 119.27 39.456 119.91L39.456 169.542C39.456 170.63 39.904 171.494 40.8 172.134C41.632 172.774 42.656 173.094 43.872 173.094L67.968 173.094C68.608 173.094 68.928 173.414 68.928 174.054L68.928 189.606C68.928 190.246 68.608 190.566 67.968 190.566L43.872 190.566C41.824 190.566 39.84 190.278 37.92 189.702C35.936 189.062 34.112 188.166 32.448 187.014C28.8 189.958 24.64 191.43 19.968 191.43C16.896 191.43 14.144 190.886 11.712 189.798C9.28001 188.646 7.23201 187.11 5.56801 185.19C3.84001 183.27 2.52801 181.03 1.63201 178.47C0.736006 175.91 0.288006 173.19 0.288006 170.31L0.288004 110.406ZM1.24801 170.31C1.24801 173.638 1.79201 176.55 2.88001 179.046C3.90401 181.542 5.28001 183.622 7.00801 185.286C8.67201 186.95 10.624 188.23 12.864 189.126C15.04 189.958 17.28 190.406 19.584 190.47C21.888 190.47 24.16 190.086 26.4 189.318C28.64 188.55 30.624 187.366 32.352 185.766C34.016 187.046 35.84 188.006 37.824 188.646C39.808 189.286 41.824 189.606 43.872 189.606L67.968 189.606L67.968 174.054L43.872 174.054C42.528 174.054 41.312 173.67 40.224 172.902C39.072 172.134 38.496 171.014 38.496 169.542L38.496 119.91L25.248 119.91L25.248 170.31C25.248 171.846 24.704 172.998 23.616 173.766C22.464 174.534 21.216 174.918 19.872 174.918C18.528 174.854 17.312 174.438 16.224 173.67C15.072 172.902 14.496 171.782 14.496 170.31L14.496 110.406L1.248 110.406L1.24801 170.31ZM34.272 -5.96984e-06C39.136 -6.18246e-06 43.68 0.927991 47.904 2.78399C52.064 4.63999 55.68 7.16799 58.752 10.368C61.824 13.568 64.224 17.312 65.952 21.6C67.68 25.824 68.544 30.336 68.544 35.136L68.544 68.544C68.544 73.344 67.68 77.888 65.952 82.176C64.224 86.4 61.824 90.112 58.752 93.312C55.68 96.512 52.064 99.04 47.904 100.896C43.68 102.752 39.136 103.68 34.272 103.68C29.344 103.68 24.8 102.752 20.64 100.896C16.48 99.04 12.864 96.544 9.79201 93.408C6.72 90.208 4.32 86.464 2.592 82.176C0.864004 77.888 5.69065e-06 73.344 5.48084e-06 68.544L4.02053e-06 35.136C3.81071e-06 30.336 0.864002 25.792 2.592 21.504C4.32 17.216 6.72 13.504 9.792 10.368C12.864 7.16799 16.48 4.63999 20.64 2.78399C24.8 0.927992 29.344 -5.75443e-06 34.272 -5.96984e-06ZM0.960003 35.136L0.960005 68.544C0.960005 73.28 1.82401 77.728 3.55201 81.888C5.216 86.048 7.552 89.664 10.56 92.736C13.504 95.808 17.024 98.24 21.12 100.032C25.152 101.824 29.536 102.72 34.272 102.72C38.944 102.72 43.328 101.824 47.424 100.032C51.456 98.24 54.976 95.808 57.984 92.736C60.992 89.664 63.36 86.048 65.088 81.888C66.752 77.728 67.584 73.28 67.584 68.544L67.584 35.136C67.584 30.4 66.752 25.952 65.088 21.792C63.36 17.632 60.992 14.016 57.984 10.944C54.976 7.87199 51.456 5.43999 47.424 3.64799C43.328 1.85599 38.944 0.959993 34.272 0.959993C29.536 0.959993 25.152 1.85599 21.12 3.64799C17.024 5.43999 13.504 7.87199 10.56 10.944C7.552 14.016 5.216 17.632 3.552 21.792C1.824 25.952 0.960003 30.4 0.960003 35.136ZM54.24 68.544C54.24 71.104 53.728 73.504 52.704 75.744C51.68 77.984 50.304 79.936 48.576 81.6C46.784 83.264 44.672 84.576 42.24 85.536C39.808 86.496 37.152 86.976 34.272 86.976C31.392 86.976 28.736 86.496 26.304 85.536C23.808 84.576 21.696 83.264 19.968 81.6C18.176 79.936 16.768 77.984 15.744 75.744C14.72 73.504 14.208 71.104 14.208 68.544L14.208 35.136C14.208 32.576 14.72 30.176 15.744 27.936C16.768 25.696 18.176 23.744 19.968 22.08C21.696 20.416 23.808 19.104 26.304 18.144C28.736 17.184 31.392 16.704 34.272 16.704C37.152 16.704 39.808 17.184 42.24 18.144C44.672 19.104 46.784 20.416 48.576 22.08C50.304 23.744 51.68 25.696 52.704 27.936C53.728 30.176 54.24 32.576 54.24 35.136L54.24 68.544ZM53.28 35.136C53.28 32.512 52.768 30.144 51.744 28.032C50.72 25.856 49.344 24 47.616 22.464C45.824 20.928 43.776 19.744 41.472 18.912C39.168 18.08 36.768 17.664 34.272 17.664C31.712 17.664 29.28 18.08 26.976 18.912C24.672 19.744 22.656 20.928 20.928 22.464C19.136 24 17.728 25.856 16.704 28.032C15.68 30.144 15.168 32.512 15.168 35.136L15.168 68.544C15.168 71.104 15.68 73.472 16.704 75.648C17.728 77.76 19.136 79.584 20.928 81.12C22.656 82.656 24.672 83.872 26.976 84.768C29.28 85.6 31.712 86.016 34.272 86.016C36.768 86.016 39.168 85.6 41.472 84.768C43.776 83.872 45.824 82.656 47.616 81.12C49.344 79.584 50.72 77.76 51.744 75.648C52.768 73.472 53.28 71.104 53.28 68.544L53.28 35.136Z" fill="black"/>
</svg>
