<svg width="110" height="83" viewBox="0 0 110 83" fill="none" xmlns="http://www.w3.org/2000/svg">
<path d="M5.50316 82.3529H104.503C105.505 82.3497 106.488 82.0733 107.345 81.5533C108.202 81.0333 108.901 80.2895 109.366 79.4018C109.832 78.5142 110.047 77.5164 109.987 76.5158C109.928 75.5152 109.597 74.5498 109.03 73.7234L59.5297 2.22338C57.4782 -0.741125 52.5392 -0.741125 50.4822 2.22338L0.982155 73.7234C0.409192 74.5481 0.0731934 75.514 0.0106641 76.5163C-0.0518652 77.5185 0.161467 78.5187 0.627482 79.4082C1.0935 80.2977 1.79437 81.0425 2.65396 81.5617C3.51354 82.0808 4.49897 82.3545 5.50316 82.3529Z" fill="black"/>
</svg>
